<?xml version="1.0" encoding="UTF-8"?>
<!DOCTYPE svg PUBLIC "-//W3C//DTD SVG 1.1//EN" "http://www.w3.org/Graphics/SVG/1.1/DTD/svg11.dtd">
<!-- Creator: CorelDRAW SE -->
<svg xmlns="http://www.w3.org/2000/svg" xml:space="preserve" width="484.788mm" height="877.486mm" version="1.1" style="shape-rendering:geometricPrecision; text-rendering:geometricPrecision; image-rendering:optimizeQuality; fill-rule:evenodd; clip-rule:evenodd"
viewBox="0 0 50236 90930"
 xmlns:xlink="http://www.w3.org/1999/xlink">
 <defs>
  <style type="text/css">
   <![CDATA[
    .str1 {stroke:#8CBC4F;stroke-width:7.89627}
    .str0 {stroke:#999999;stroke-width:7.89627}
    .str2 {stroke:#F08888;stroke-width:7.89627}
    .str3 {stroke:white;stroke-width:7.89627}
    .fil5 {fill:#1A1A1A}
    .fil3 {fill:#8CBC4F}
    .fil0 {fill:#999999}
    .fil2 {fill:#C23A3A}
    .fil1 {fill:#F08888}
    .fil4 {fill:white}
   ]]>
  </style>
 </defs>
 <g id="Vrstva_x0020_1">
  <metadata id="CorelCorpID_0Corel-Layer"/>
  <g id="_2094064080">
   <path class="fil0 str0" d="M33629 80416l-254 459 -25 -131 279 -328zm-440 -557c-560,612 -2028,1577 -3132,2677 -270,269 -425,522 -661,745 -352,332 -197,130 -413,175 -97,20 -129,23 -136,21 -14,6 -37,15 -73,29 -1012,380 -2899,1754 -3659,2478l-3154 2450c26,-550 1111,-849 1358,-1450 -702,170 -1428,1133 -2838,1696 110,74 67,144 436,40 -268,503 -259,449 335,544l2799 214c630,97 1035,314 1734,313 4910,-10 6429,-1826 8359,-1679 -493,71 -1365,320 -1676,588 296,191 731,-6 1308,-172 465,-134 794,-264 1197,-405 -370,-1231 -1369,-1888 -784,-3734 183,-579 474,-1252 610,-1854 168,-745 208,-1293 465,-1905 914,-2168 2466,-4043 4514,-5148l-1839 -558c-314,696 -1613,2117 -2162,2799l-2151 2691c275,-683 889,-1239 1180,-1821 -419,76 -1323,944 -1617,1266zm-5576 6254c51,95 131,17 4,432l-434 1481c-227,-309 -50,-606 49,-1007 100,-405 102,-662 381,-906zm1565 -61c38,729 -457,1560 -802,1967 92,-579 594,-1236 802,-1967z"/>
   <path class="fil0 str0" d="M26117 63209c833,-1491 2618,-3592 2773,-3868 -656,31 -1121,144 -1927,86 -863,-63 -881,-260 -1848,-12 -363,93 -3077,23 -3849,42l-826 -197c660,576 568,507 433,890 1125,501 3608,1475 4043,2614 212,556 16,1329 331,1870 302,-267 247,-349 475,-743 143,-245 230,-387 395,-682zm-144 -2894c-68,473 -329,1094 -607,1362 9,-411 191,-1274 607,-1362zm-834 -233c114,294 43,323 -105,656l-210 542c-63,137 -74,127 -115,180 -137,-412 216,-1138 430,-1378zm-816 606c-66,133 -183,458 -195,504 -218,-220 -211,-177 -58,-572 76,-192 185,-373 316,-556 112,194 315,-134 -63,624z"/>
   <path class="fil0 str0" d="M18509 73477c-314,-66 -3159,-1643 -4236,-1921l-246 767c-137,745 -445,1899 -463,2499 -411,322 -257,-41 -377,430 -174,687 85,1000 152,1612 75,682 698,1391 1075,2007 602,982 475,1289 724,2497 246,1189 -166,2226 353,2861 175,-789 828,-2153 1214,-2786 614,-1009 802,-1517 1256,-2733 713,-1907 1893,-4252 2348,-5535 -638,59 -987,472 -1800,302zm-5164 2847c-95,-241 131,7 53,123 -105,157 -53,-120 -53,-123zm1307 -3908l-701 2696c-194,-407 537,-2980 537,-2980 166,92 179,-186 164,284zm1459 5198c163,-590 316,-1443 739,-1701 -19,487 -115,635 -265,1013 -168,423 -68,544 -474,688zm-495 -589l-166 480c-7,-536 -99,-1874 610,-1899 -48,240 -220,644 -310,912 -56,167 -93,328 -134,507zm1440 -297c407,-864 345,-1107 681,-1275 96,406 -280,982 -473,1398 -401,863 -422,1148 -783,1155 210,-335 376,-856 575,-1278z"/>
   <path class="fil0 str0" d="M12100 76245c-651,-854 -1867,-2380 -3055,-2329 248,-350 -75,-555 -378,-697 -838,-392 -2287,-744 -3240,-479 -1117,309 -2937,462 -3212,1981 331,-59 272,-116 543,-7 -15,19 -36,47 -47,56l-389 253c-676,465 -849,3642 -855,4424 -462,-649 -97,-2293 -66,-3035 -184,147 -47,-49 -250,254l-377 917c-136,429 -202,981 -248,1460 -167,1754 1457,6091 2922,7141 2202,1578 4423,2679 7386,2736 575,11 1020,-233 1410,-305 485,-89 1142,49 1671,47 739,-1674 1078,-2213 857,-4545 -84,-886 -180,-1445 -470,-2223 -235,-633 99,-449 -101,-1060 -536,-1639 -1142,-3333 -2101,-4589zm-5086 -2430c1373,373 550,2678 -1132,2450 -1455,-1516 62,-2741 1132,-2450zm-3460 1975c1718,-398 1340,2452 -178,2864 -1071,290 -1104,-703 -1208,-1501 -105,-800 700,-1204 1386,-1363zm-1499 4138c889,-129 1833,-291 1977,600 231,1431 -1588,3648 -2404,1567 -374,-953 126,-1523 427,-2167zm8825 -970c-220,-328 -67,-1253 166,-1584 229,399 -36,1382 -166,1584zm489 561c-176,-244 -22,-1095 16,-1765 161,56 211,-125 256,303 8,74 -88,1223 -272,1462zm860 455c-197,-334 -133,-853 65,-1127l35 915c-36,227 -25,103 -100,212zm-4663 -154c676,-345 1813,38 2315,366 1523,993 1811,2746 1145,4095 -130,264 -1037,1168 -1551,1327 -962,297 -2700,-60 -3232,-1132 -166,-335 -337,-559 -487,-915 -348,-829 6,-1662 269,-2366 444,-1185 626,-909 1541,-1375zm-3805 4146c39,-34 94,-526 381,0 -215,157 -89,222 -381,0zm1187 968c-18,15 213,455 -339,0 237,-139 185,-93 339,0zm-259 871c318,83 298,10 312,368 -299,-93 -233,-41 -312,-368z"/>
   <path class="fil0 str0" d="M13400 71385c-620,128 -50,1749 -5,2204 332,-397 656,-1821 371,-2301 -37,20 -140,50 -366,97z"/>
   <path class="fil0 str0" d="M12726 73952c124,151 -275,121 0,9 0,-3 0,-6 0,-9zm387 440c6,-517 3,-1115 -136,-1512 -60,92 -17,-33 -116,216l-75 250c-49,229 -50,379 -60,606 -15,-18 -39,-40 -74,-65 -28,-20 -47,-37 -60,-51 -12,6 -27,12 -45,18 198,815 -35,935 -156,1762l423 208c219,-199 110,-12 227,-336l72 -1096z"/>
   <path class="fil0 str0" d="M22014 69549c-71,371 -41,177 -237,411 -129,154 -142,133 -279,293l516 -704zm-1280 -2909c-166,-86 -378,-196 -526,-344l526 344zm-7991 3257c697,892 4357,2631 5216,2780 1184,206 2506,247 3011,-743l1179 -2151 36 -72 185 -376c-282,-87 51,-84 -356,214 112,-537 326,-577 410,-915 71,-284 -80,-75 51,-514 3,-10 13,-36 15,-65 31,-438 -1363,-860 -1756,-1415 320,101 857,365 1172,553 393,234 641,571 974,758 365,-385 704,-1031 697,-1793l306 83c689,-1212 1026,-3222 -69,-3872 -125,-75 -248,-89 -450,-197 -356,-191 -1999,-1360 -2476,-1296 -652,89 462,-18 -291,165 -806,-637 -1512,-668 -1359,-2025 -951,-25 -1927,-29 -2811,-124 -815,-88 -1659,-349 -2502,-321 -985,1340 -2608,3045 -2903,5064 -329,2256 475,4665 1721,6262zm2499 -2689c128,258 -30,1072 -124,1442 -211,-386 -204,-1181 124,-1442zm-681 70c-58,316 -63,801 -180,1089 -398,-340 7,-1829 40,-1882 395,150 225,333 140,793zm-35 -6265c-18,373 -340,910 -484,1335 -198,585 -260,867 -105,1481 -698,-395 54,-2631 589,-2816zm-254 -931c-65,117 -22,25 -151,161 -400,422 -535,692 -770,1298 -104,265 -345,866 -381,1026 -51,225 -38,415 -38,643 0,67 3,242 -1,299 -21,261 13,93 -56,229 -468,-621 -92,-1813 160,-2430 166,-406 692,-1694 1264,-1473 8,21 12,55 10,65l-37 182zm3599 11046c1347,1143 1408,707 1994,1102 -849,-73 -1700,-465 -2100,-963l106 -139zm4444 -7120c-8,-26 -37,-35 -58,-86l301 34c-5,5 -195,194 -243,52zm-941 -750c-205,-104 -306,9 -108,-318 207,124 303,-26 108,318zm-1020 -756c-281,-79 -722,-371 -1072,-557 -795,-422 -881,-355 -914,-761 375,62 737,388 1104,592 402,224 873,241 882,726z"/>
   <path class="fil0 str0" d="M23227 42898c1163,-362 1936,162 3362,-56 1145,-175 2318,-176 3147,250 -31,886 -2960,3488 -3420,3621 -806,-549 -3163,-2837 -3089,-3815zm518 6357c1666,-107 1447,-1069 2612,-1334 1088,1760 3771,2324 5955,1145 928,-500 899,875 -2268,1120 -17,612 -154,1279 -202,2048 -106,1694 -693,1060 -141,1662 -137,87 -18,-8 -172,141l-153 171c-1042,987 -4762,383 -5676,385l-149 356c-4,-15 -16,47 -26,70 -131,-246 -266,-615 -387,-853 408,-467 283,-253 207,-884 -62,-507 19,-719 61,-1166 101,-1057 -29,-1468 -67,-2411 -725,-9 -2817,-661 -2736,-1154 719,-310 936,845 3142,704zm-1405 9236c1130,28 2680,-121 3844,-265 1261,-157 2552,-115 3921,-193 577,-613 2177,-2474 3388,-2304 439,61 731,236 1228,317 2007,328 1997,1440 2983,670 744,-582 1852,-2683 2338,-3363 440,-615 906,-976 1345,-1550 393,-513 935,-984 1666,-1018 734,786 105,1806 -97,2671 562,-191 598,-455 1011,-677 404,-218 699,-154 1035,-480 884,-860 1063,-1774 1314,-2475 336,-937 263,494 710,-1541 239,-1090 220,-1608 224,-2831 11,-2793 -1571,-6803 -3256,-8849 -1648,-2001 -1097,-1193 -2351,-2171 -1901,-1484 -1200,-744 -2883,-1643l-3412 -1115 -4078 -411c-487,-31 -1021,-70 -1507,-77 -598,-8 -985,182 -1397,167 -486,-17 -626,-507 -1939,-336 -326,42 -470,197 -474,189 -10,-19 -39,34 -61,48 -398,-399 -1077,-264 -1878,-194 -1962,171 -3535,537 -5343,1130 -984,323 -2213,736 -3115,1201 -886,458 -1811,953 -2723,1470l-1291 860c-940,720 -2575,2291 -2916,3448 -482,1633 -1184,5777 -829,7469 -330,-113 -86,127 -275,-232 -350,-666 158,-5342 70,-5580 -129,-345 -247,-314 -447,191 -697,1758 -891,3534 -997,5394 -43,738 -401,1127 -66,2800 824,4104 1668,5673 5148,7681 1799,1037 1838,619 3164,1035 -118,-522 -318,-438 -554,-858 425,277 699,736 1051,906 439,212 1074,-3 1654,40l-906 209c418,355 1239,294 1755,302 712,11 1090,35 1764,118 659,82 1281,4 1795,36 172,11 244,112 734,142 297,18 677,15 978,13 1319,-9 2512,-48 3766,-147 1414,-111 130,118 1533,-169 627,-129 1347,83 1853,-90 -280,-280 194,-119 -478,-216 -310,-45 -6366,487 -6999,278zm5010 -26180c-300,191 -1338,-199 -1989,-109 -490,68 -1564,546 -1544,-125 605,27 3025,-554 3533,234zm-10986 5405c1831,-564 4745,1774 3339,4354 -387,712 -538,1067 -1498,1273 -1002,216 -1607,255 -2321,-262 -2348,-1698 -777,-3568 -401,-4626 110,-312 434,-601 881,-739zm-6550 6190c-190,1229 15,765 -269,922 -7,-496 -147,-1600 225,-1950 110,341 110,601 44,1028zm-803 -148c-24,597 228,535 -9,894 -625,-251 -351,-1695 -277,-2408 69,-671 170,-2077 885,-1708 -249,1077 -500,735 -599,3222zm3318 10957c472,317 1364,443 1614,958 -602,254 -3113,-1458 -3025,-1943 127,-59 -32,-95 196,-36l510 431c238,205 435,409 705,590zm1494 2248c-52,-384 51,377 0,0zm17915 -17057c-302,239 -485,3 -332,-326 279,105 223,53 332,326zm5897 2556c-2277,2908 -6907,-910 -4099,-4105 777,-884 794,-617 2074,-964 1689,-458 4164,2335 2025,5069zm930 386c759,-1025 291,-782 775,-801 226,424 -199,640 -425,945 -578,777 -252,754 -651,929 -234,-338 112,-819 301,-1073zm6854 1028c-229,-206 -484,-489 -120,-749l123 540 570 112 -573 97zm-402 -1328c-443,309 -1187,24 -1553,-215 -80,-742 942,-1718 1336,-1507 -95,518 85,-10 -590,568 -284,243 -371,361 -399,864 938,131 981,0 1206,290zm-36176 7593c288,171 522,613 777,1013 -414,186 -541,-189 -667,-488l-487 397 -228 -308c-156,-234 -73,-146 -255,-310 -150,396 -36,435 -494,462l48 -1105 341 119c766,282 306,87 712,501l253 -281zm11714 -10327c-50,196 -36,57 -156,129 -299,-409 47,-275 114,-305 55,114 91,-13 42,176zm-687 -1437c263,99 249,43 268,356 -383,1 -375,-77 -268,-356zm-2936 17647l173 216c-283,26 -179,75 -173,-216zm-2047 -389c272,-25 512,30 660,255 -336,109 -657,190 -660,-255zm23287 -10742c90,-218 1052,-1358 1079,-1350l50 70c-262,396 -796,1086 -1129,1280zm-3736 9983c182,80 343,173 409,177 -274,57 -298,28 -409,-177zm-12239 -22226c-76,235 172,162 -352,258l67 -416c263,45 113,-58 285,158zm-1638 488c-230,184 -77,160 -538,129 77,-196 144,-212 289,-356l249 227zm19765 4566c7,-449 104,-820 206,-1189 123,-450 102,-660 410,-852 36,724 -311,1603 -616,2041zm-662 -1192c-180,-347 124,-1286 295,-1556l269 205 -358 1151c-111,270 45,107 -206,200zm-968 -97c-50,-69 -264,69 -37,-574l599 -1318c239,58 206,61 357,196 -81,342 -300,573 -460,870 -227,424 -76,600 -459,826zm5307 12512c-70,-318 175,-680 414,-1095 151,-265 441,-914 717,-1062 30,527 -856,1854 -1131,2157z"/>
   <path class="fil0 str0" d="M26972 30430l511 -57c320,-82 317,-486 403,-795 461,-1651 237,-524 266,-2629 25,-1809 -85,-5732 -464,-7378 -244,-1058 -260,-2448 -432,-3525 -347,-2166 -950,-6137 -1830,-7980 -108,-228 -275,-435 -361,-614 -126,-264 -124,-412 -273,-695 -744,-1425 -1319,-1950 -1579,-2431 -20,25 -42,36 -50,81 -100,578 -307,-246 -1214,1600 -446,907 -1089,1833 -1634,2675 -637,984 -1699,4080 -2044,5278l-1273 4524c-74,364 -405,2059 -683,2332l268 -1867c-156,128 -183,-168 -330,631l-108 1440c13,-71 28,-149 44,-236 415,608 -21,118 71,925 -65,-74 -127,-39 -162,-56l-2 25c45,676 -672,3902 -827,5202 -359,3013 47,2671 88,3398l181 2201c652,-45 1494,-291 1950,-576 -18,-955 -78,-1861 -71,-2804 8,-988 240,-1809 231,-2796 -10,-1125 -59,-1764 206,-2784 232,-894 396,-1467 558,-2469 112,-692 421,-1528 590,-2294l572 -2438c263,-545 1737,-3491 2338,-3628l964 1774c677,1394 2375,4231 2583,5815 97,742 464,1398 518,2257 95,1534 390,3644 411,5166 11,808 -170,1893 -215,2764 269,-10 531,-20 799,-36zm-5565 -21510c-507,1166 15,841 -464,1023 -289,-534 447,-1793 675,-2230 183,-350 311,-717 518,-1095 158,-289 364,-589 529,-928 191,47 144,2 275,112l-1017 2019c-178,408 -331,675 -516,1099zm1337 -1752c-75,455 -891,2241 -1129,2563 206,-724 709,-2166 1129,-2563z"/>
   <path class="fil0" d="M28923 18930c261,-1830 952,-5005 1569,-7508 616,-2503 1158,-4333 1531,-5388 374,-1056 579,-1336 831,-1084 252,253 551,1037 1196,2288 644,1252 1634,2970 2372,4782 737,1811 1223,3716 1681,5603 457,1886 887,3754 1064,6154 178,2400 103,5332 9,6873 -93,1541 -205,1691 -457,1765 -252,75 -644,75 -1560,-159 -915,-233 -2353,-700 -3660,-933 -1308,-234 -2484,-234 -3325,-243 -840,-10 -1345,-28 -1466,-458 -121,-429 140,-1270 187,-2643 47,-1372 -122,-3277 -140,-4407 -19,-1130 112,-1485 93,-1906 -19,-420 -187,-905 75,-2736z"/>
   <path class="fil0 str0" d="M45358 75690c200,-132 402,-158 715,-167l-715 167zm-5911 733l-755 547c-1487,1046 -1225,1162 -1919,2065l-575 723c-265,518 -512,1352 -666,1949l166 93 84 36 234 89c-916,369 -1081,1561 -1224,2797 -81,698 -423,888 -135,1770 161,494 480,912 671,1297l649 133 29 55 93 227c3,10 10,128 18,156 770,334 1890,407 2900,392 1201,-18 1857,-245 2918,-328l-2042 584c748,10 2989,-316 3557,-603l1866 -1256c291,-216 254,-293 542,-359 -159,216 -151,145 -148,484 356,-284 609,-578 979,-904 2119,-1872 2877,-3316 3020,-6169 109,-2186 -154,-1832 -524,-3170 -528,375 -92,256 -684,675 285,-730 501,-941 -63,-1757 -340,-492 -482,-1171 -1783,-1863 -299,168 -494,369 -787,575 -54,46 -108,90 -164,133 -326,250 -680,438 -1055,575 -214,129 -398,247 -451,299l1160 22c-541,221 -1767,160 -2508,270 -2192,326 -1177,72 -2000,649 -37,-94 -8,-79 -65,-191 -228,-447 -1054,-172 -1338,5zm-810 5295c620,-188 1737,42 2302,230 1442,479 2442,1876 1512,3201 -495,704 -735,756 -1505,1171 -1416,762 -3203,440 -3709,-882 -429,-1118 -33,-3284 1400,-3720zm-2647 5976l592 -324c-210,158 -194,219 -592,324zm9064 -3937c-72,-916 123,-1619 600,-2082 460,-446 1510,-10 1934,365 215,1865 -2405,3345 -2534,1717zm-656 -3030c-640,-1070 -157,-2335 525,-2799 142,-97 337,-191 556,-199 593,-21 766,203 860,679l-72 -52 -134 -105c-259,-196 174,31 -191,-146 -160,-77 -254,-94 -461,-72 -371,38 -535,250 -711,500 -375,535 -575,1156 -299,1910 1080,342 2170,-1372 2054,-2582 -843,-583 -1919,-34 -2235,516 -17,28 -55,117 -69,147l-163 607c-117,-281 -26,-292 -212,-548 -651,756 -1160,742 -1602,907 -2000,-1486 -634,-3272 1187,-3219 821,23 921,199 1381,600l-109 764c488,-156 1134,-499 1717,-200 529,272 483,815 247,1400 -122,305 -112,492 -295,768 -483,731 -1014,1202 -1974,1124zm-6651 -1904c-55,-44 -238,-176 -61,-50 114,-124 -189,-100 353,-146 101,-8 306,15 418,21 -466,50 -372,-30 -710,175zm6003 7681c-242,-451 421,-1308 603,-1638 -37,360 -171,557 -255,852 -120,424 -63,605 -348,786zm936 80c-95,-453 73,-1320 248,-1710 351,313 -153,1380 -248,1710zm-4168 -9398c-122,-42 -192,-44 -347,-152l347 152zm185 81l-185 -81c50,17 109,41 185,81z"/>
   <path class="fil1" d="M45126 77877c-262,334 -610,887 -781,1316 -172,428 -167,732 -63,947 104,216 307,345 600,373 293,28 676,-44 962,-343 286,-299 475,-824 604,-1237 130,-412 200,-710 160,-949 -39,-238 -189,-415 -352,-517 -164,-101 -341,-127 -517,-83 -177,45 -352,159 -613,493z"/>
   <path class="fil2" d="M32402 56378c-1233,486 -2403,1774 -4015,4081 -1612,2307 -3667,5631 -5254,8675 -1588,3045 -2708,5809 -3960,8499 -1251,2689 -2633,5304 -3474,7433 -840,2129 -1139,3773 -915,4632 224,859 971,934 2036,504 1065,-429 2447,-1363 4034,-2222 1588,-859 3381,-1644 5137,-2802 1755,-1158 3473,-2689 5173,-3941 1700,-1251 3381,-2222 4520,-3287 1139,-1065 1737,-2223 1924,-2839 186,-616 -38,-691 -355,-1569 -318,-878 -729,-2558 -598,-3847 131,-1289 803,-2185 1681,-2764 878,-579 1961,-841 2858,-972 896,-130 1606,-130 1998,-336 392,-205 467,-616 504,-1009 38,-392 38,-765 -298,-1251 -337,-485 -1009,-1083 -1812,-1905 -803,-822 -1737,-1868 -2652,-2727 -915,-859 -1812,-1531 -2908,-2026 -1096,-495 -2392,-813 -3624,-327z"/>
   <path class="fil0" d="M38028 66482c-607,748 -1373,1924 -1681,3222 -308,1298 -159,2718 252,3642 411,925 1083,1355 1520,1835 437,481 638,1013 1126,1190 488,177 1263,0 2423,-238 1160,-238 2706,-536 3833,-1293 1128,-756 1838,-1970 2155,-3081 318,-1111 243,-2120 -177,-3054 -421,-934 -1186,-1793 -2092,-2363 -906,-569 -1952,-849 -2951,-1008 -999,-159 -1952,-196 -2652,-56 -701,140 -1149,457 -1756,1204z"/>
   <path class="fil1" d="M21347 13772c-467,626 -1195,1915 -1802,3726 -607,1812 -1093,4147 -1410,6397 -318,2251 -467,4418 -533,5800 -65,1382 -46,1980 253,2194 298,215 877,47 1699,-140 822,-186 1887,-392 3026,-504 1139,-112 2353,-131 3007,-327 654,-196 747,-570 756,-1326 10,-756 -65,-1896 -196,-3306 -130,-1410 -317,-3091 -682,-4716 -364,-1625 -905,-3194 -1475,-4576 -570,-1382 -1167,-2577 -1569,-3194 -401,-616 -607,-653 -1074,-28z"/>
   <path class="fil1" d="M33908 14678c-383,318 -1018,1196 -1569,2466 -551,1270 -1018,2932 -1354,4538 -337,1606 -542,3157 -533,4670 10,1512 234,2988 551,3782 318,793 729,906 1504,1064 775,159 1914,365 2661,477 747,112 1102,130 1280,-150 177,-280 177,-859 196,-2531 18,-1671 56,-4435 -196,-6677 -252,-2241 -794,-3959 -1158,-5117 -364,-1158 -551,-1756 -710,-2176 -159,-420 -290,-663 -672,-346z"/>
   <path class="fil3 str1" d="M37886 57501c482,599 1216,853 1473,1073 4,3 1327,1665 1911,1958 35,12 63,23 85,32 7,-13 35,-28 97,-43 578,-136 2877,-2401 3405,-2880 535,-485 1727,-1667 1833,-2341 -2206,-68 -2508,1839 -3716,2001 90,-584 991,-1553 1312,-2064 317,-502 1219,-1544 863,-2184 -282,44 -331,-109 -681,669 -151,-369 -33,-133 -244,-366l-2501 2440c-518,600 -350,694 -770,834 -305,-274 -178,-162 -338,-527 359,-1189 2198,-2729 2283,-4659 -621,174 -1076,907 -1483,1358 -582,645 -3268,4097 -3529,4699zm3458 2874c-8,3 -26,-122 26,-10 39,84 -24,10 -26,10zm2994 -6607c0,-13 -29,-22 -22,-32 120,-180 29,42 31,45 0,0 -9,-8 -9,-13z"/>
   <path class="fil1 str2" d="M26322 46314c557,-334 2581,-2406 2798,-2906 -789,-479 -1316,-16 -2147,-8 -840,8 -1933,-125 -2397,219 -263,-341 -123,-388 -717,-402 33,433 277,594 533,832 625,582 1594,1990 1930,2265z"/>
   <path class="fil1 str2" d="M10914 83390c375,-1727 -589,-2767 -1697,-3206 -120,202 22,210 -206,307 -1008,-1127 -3564,214 -2474,3558 572,1755 3835,1833 4377,-659zm-2773 -814c194,463 15,1494 -3,2131 -291,-469 -277,-1645 3,-2131zm-384 -828c-388,601 -289,1570 -174,2203 -456,-203 -430,-867 -354,-1475 54,-426 163,-1234 734,-1137 -12,378 -29,135 -206,409z"/>
   <path class="fil1 str2" d="M6066 75815c584,159 893,-113 1143,-532 515,-860 179,-1022 -399,-1226 266,478 252,196 339,645 -493,-100 -108,-187 -766,-221 -343,375 -551,663 -317,1334z"/>
   <path class="fil1 str2" d="M2691 78320c1113,296 2225,-1232 1473,-2206 -353,-38 -1183,258 -1349,482 -272,367 -276,1308 -124,1724z"/>
   <path class="fil1 str2" d="M3101 80101c-23,5 -54,18 -76,25l-352 201c-319,86 -405,-179 -752,655 -328,789 68,1176 342,1641 1587,-96 1960,-2732 838,-2522z"/>
   <path class="fil1 str2" d="M39017 83688c152,490 36,926 275,1541 -194,-48 -296,24 -454,-744 -180,-872 -31,-738 179,-797zm-367 -311c-6,565 -924,752 13,1342 -25,18 128,174 -268,88 -194,-43 -268,-184 -400,-518 146,-416 173,-864 655,-912zm1826 -841c-376,-1001 -3350,-457 -3010,2404 240,2022 3450,1816 4589,119 861,-1283 -178,-2782 -1430,-2819 156,598 102,927 -498,1054 225,-221 543,-244 349,-758z"/>
   <path class="fil1 str2" d="M46563 81917c-2072,22 -1556,3863 329,1534 114,-140 309,-403 380,-609 252,-736 -75,-796 -161,-857 -67,8 -92,1 -99,-3 6,9 16,46 -46,164 -122,231 54,89 -160,349l-243 -578z"/>
   <path class="fil1 str2" d="M42208 79059c1028,270 2257,-1094 2217,-2232 -2029,-899 -3106,596 -2915,1502l90 247c216,380 43,106 245,281 -25,-2044 1113,-2510 1694,-1991 -125,64 -728,-163 -1182,548 -277,436 -297,1130 -149,1645z"/>
   <path class="fil0 str0" d="M29013 58887c-453,-39 -80,7 -233,180l470 -41c-197,-181 88,-111 -237,-139z"/>
   <path class="fil0 str0" d="M13833 33720c348,-171 305,-147 462,-455 -451,89 -932,360 -1112,678 254,-53 430,-115 650,-223z"/>
   <path class="fil0 str0" d="M7899 39300c264,-277 496,-847 562,-1163 -434,451 -511,730 -765,1324 130,-97 95,-49 203,-161z"/>
   <path class="fil0 str0" d="M15025 30606c9,377 17,493 125,743 144,-302 151,-1091 -16,-1395l-109 652z"/>
   <path class="fil0 str0" d="M23742 89527c-91,-25 -426,-15 -538,-14 -346,4 -656,0 -1003,25l1899 268c-71,-88 -62,-201 -358,-279z"/>
   <path class="fil0 str0" d="M12178 89172c534,-13 577,15 903,-244 -139,-5 -382,-31 -511,-5 -551,108 -266,121 -392,249z"/>
   <path class="fil4 str3" d="M34135 42267c1997,1549 3844,-125 3868,-2086 17,-1408 -976,-2582 -2337,-2309 -2268,454 -2829,3388 -1531,4395zm2638 -1548c-83,2135 -2324,1751 -2463,0 -153,-1913 2543,-2060 2463,0z"/>
   <path class="fil4 str3" d="M18069 42025c-1301,402 -2620,-1692 -748,-2683 770,-408 1399,268 1549,863 183,719 -265,1655 -801,1820zm-354 774c3095,-462 1591,-4369 180,-4529 -871,-100 135,179 -697,56 -1249,-183 -2096,1426 -1974,2393 174,1375 793,2333 2491,2080z"/>
   <path class="fil4 str3" d="M26221 48568c-919,186 -835,771 -1592,979 -139,38 -240,43 -357,75l-182 58c-29,10 -66,28 -89,37 -23,8 -61,22 -89,39 30,1230 35,3381 -181,4428 619,48 1891,403 2230,-280 218,-440 450,-2988 485,-3497 61,-885 313,-1109 -225,-1839zm-1029 2316c297,102 260,128 205,527 -89,645 -215,573 -283,632l78 -1159zm-294 466c-59,687 -76,915 -290,1063 -160,-300 -150,-1261 208,-1492 60,107 114,66 82,429z"/>
   <path class="fil4 str3" d="M27061 49337c-145,1024 -163,2984 -524,3876l-235 879c983,-81 1729,-141 2710,-421l77 -177c2,-5 428,-2035 401,-3261 -2530,-619 -1382,-503 -2429,-896zm1090 3217c-108,-247 -33,-780 121,-1032 220,359 46,779 -121,1032zm-430 -224c-149,-233 -259,-853 215,-1040 79,234 47,131 -33,468l-182 572z"/>
   <g>
    <path class="fil5" d="M22201 89538c347,-25 657,-21 1003,-25 112,-1 447,-11 538,14 296,78 287,191 358,279l-1899 -268zm-10023 -366c126,-128 -159,-141 392,-249 129,-26 372,0 511,5 -326,259 -369,231 -903,244zm8132 -1668c-1847,1281 -1283,1148 -3496,2344 -542,294 -1525,878 -1864,-7 -317,-827 25,-932 56,-1355 17,-241 -108,-208 3,-653 240,-958 636,-1725 955,-2592l1420 -3851c131,-415 308,-948 662,-1234 -80,263 -81,468 -109,920l253 -822c316,-828 718,-1253 1079,-2150 269,-668 246,-973 583,-1570 982,-1743 1610,-4163 2475,-5170 148,-172 328,-400 435,-630 113,-245 169,-513 290,-790 428,-984 1342,-2927 1860,-3633 598,-816 1056,-1976 1596,-2813l797 -1353c814,-1302 1894,-2346 2841,-3509 187,-229 -77,24 221,-208 -147,393 -79,170 -238,517 -85,185 -110,254 -160,481 347,-347 557,-910 869,-1372l172 -280c106,-157 383,-473 572,-510 157,-31 9,-60 149,110l78 115c316,-444 9,-402 518,-867 853,-780 2752,-238 3205,492 295,-100 -279,93 134,-66 45,-17 -14,-23 229,-74 105,88 173,131 288,238l1007 716c560,369 821,561 1320,940l2484 2027c-144,608 -225,684 447,530 266,1086 489,401 686,584 216,201 164,611 280,814l296 -295c905,1333 1082,653 320,2535 -714,-90 -1197,-103 -1967,-144 -786,-43 -890,-428 -1593,129 -705,557 -1721,1302 -2388,1917 -510,470 -1156,2023 -1245,2922 -132,1329 403,2523 888,3422 319,-163 59,49 238,-299 178,247 306,373 536,594l657 361c-16,-238 61,-81 -85,-286 -441,-619 -2583,-1907 -1286,-5386 305,-818 1226,-1564 1861,-2024 826,-600 1563,-1099 2852,-946l215 317c240,-269 45,-179 538,-194 95,150 131,-94 53,294l369 257 331 -319c364,203 711,561 1145,622 -106,-202 -14,-37 -142,-225l-213 -322c3290,1036 2352,1675 2853,3017l120 -731c701,855 972,3102 175,4581 -300,557 -567,767 -780,1176 -294,-109 -236,-243 -377,-137 -172,130 -287,794 -768,1128 -284,197 -1559,791 -1995,697 -489,-106 -153,-304 -1092,-231 -762,60 -3622,75 -3761,-655 0,0 -17,-282 -19,-306 -325,73 -144,14 -414,195 -215,-314 -586,-998 -863,-1178 21,600 272,408 447,965 -355,-211 -313,-219 -485,-640 -70,631 295,847 724,1041 -669,1555 -5016,5072 -6606,6170l1547 -978c-100,158 -73,150 -192,286l-1817 1522c-626,632 -1704,790 -2356,1457 446,115 367,-186 865,-321 -126,360 -642,613 -1053,718 159,-181 67,-21 162,-153 153,-215 109,25 49,-187 -751,-233 -3527,2114 -4411,2340l-1533 -1863c-206,-311 -203,-581 -492,-446 -149,136 74,326 257,586 438,628 1216,1428 1464,2024 -1530,988 -2697,2778 -4650,3088 19,-18 50,-72 59,-54l1465 -1360zm10358 -6474l288 -171 -288 171zm12118 -5783c183,-119 -120,-82 -50,-33 3,2 -157,168 50,33zm-3967 -629l-670 -653c190,287 340,468 670,653zm-7176 -17074c-215,345 140,-226 0,0zm-1827 2107l23 128 141 -349 -164 221zm-9465 27814c341,-308 -188,171 0,0zm2109 -497c322,-450 228,-243 633,-530 80,-57 99,-81 172,-149l108 -109c81,-80 82,-80 170,-167 432,-423 3422,-2369 3961,-2468 -365,619 -1046,690 -1711,1399 -555,591 -2598,1881 -3333,2024zm-8896 -12146c18,-600 326,-1754 463,-2499l246 -767c1077,278 3922,1855 4236,1921 813,170 1162,-243 1800,-302 -455,1283 -1635,3628 -2348,5535 -454,1216 -642,1724 -1256,2733 -386,633 -1039,1997 -1214,2786 -519,-635 -107,-1672 -353,-2861 -249,-1208 -122,-1515 -724,-2497 -377,-616 -1000,-1325 -1075,-2007 -67,-612 -326,-925 -152,-1612 120,-471 -34,-108 377,-430zm-166 1625c78,-116 -148,-364 -53,-123 0,3 -52,280 53,123zm25794 -185c137,-240 -30,-93 157,-244 153,-123 104,-72 317,-129 -155,392 13,257 -474,373zm2176 -580l573 -206c371,-44 396,-41 627,99l-875 221c-526,-21 -158,4 -325,-114zm3990 8l715 -167c-313,9 -515,35 -715,167zm-1160 -22c133,-130 1077,-669 1264,-764 562,-284 776,-584 1193,-818 1301,692 1443,1371 1783,1863 564,816 348,1027 63,1757 592,-419 156,-300 684,-675 370,1338 633,984 524,3170 -143,2853 -901,4297 -3020,6169 -370,326 -623,620 -979,904 -3,-339 -11,-268 148,-484 -288,66 -251,143 -542,359l-1866 1256c-568,287 -2809,613 -3557,603l2042 -584c-1061,83 -1717,310 -2918,328 -1010,15 -2130,-58 -2900,-392 -8,-28 -15,-146 -18,-156l-93 -227c-6,-13 -23,-43 -29,-55l-649 -133c-191,-385 -510,-803 -671,-1297 -288,-882 54,-1072 135,-1770 143,-1236 308,-2428 1224,-2797l-234 -89c-23,-10 -60,-25 -84,-36l-166 -93c154,-597 401,-1431 666,-1949l575 -723c694,-903 432,-1019 1919,-2065l755 -547c284,-177 1110,-452 1338,-5 57,112 28,97 65,191 823,-577 -192,-323 2000,-649 741,-110 1967,-49 2508,-270l-1160 -22zm-7616 11702l-592 324c398,-105 382,-166 592,-324zm5700 942l-362 36 362 -36zm-7309 -189c-403,141 -732,271 -1197,405 -577,166 -1012,363 -1308,172 311,-268 1183,-517 1676,-588 -1930,-147 -3449,1669 -8359,1679 -699,1 -1104,-216 -1734,-313l-2799 -214c-594,-95 -603,-41 -335,-544 -369,104 -326,34 -436,-40 1410,-563 2136,-1526 2838,-1696 -247,601 -1332,900 -1358,1450l3154 -2450c760,-724 2647,-2098 3659,-2478 239,-90 -96,12 209,-50 216,-45 61,157 413,-175 236,-223 391,-476 661,-745 1104,-1100 2572,-2065 3132,-2677 294,-322 1198,-1190 1617,-1266 -291,582 -905,1138 -1180,1821l2151 -2691c549,-682 1848,-2103 2162,-2799l1839 558c-2048,1105 -3600,2980 -4514,5148 -257,612 -297,1160 -465,1905 -136,602 -427,1275 -610,1854 -585,1846 414,2503 784,3734zm-1623 -7379l25 131 254 -459 -279 328zm-20536 -4920l-423 -208c121,-827 354,-947 156,-1762 267,-90 -136,-140 105,33 309,222 -236,201 74,74 10,-232 10,-383 60,-615 4,-14 74,-247 75,-250 99,-249 56,-124 116,-216 139,397 142,995 136,1512l-72 1096c-117,324 -8,137 -227,336zm-3769 -1908c1188,-51 2404,1475 3055,2329 959,1256 1565,2950 2101,4589 200,611 -134,427 101,1060 290,778 386,1337 470,2223 221,2332 -118,2871 -857,4545 -529,2 -1186,-136 -1671,-47 -390,72 -835,316 -1410,305 -2963,-57 -5184,-1158 -7386,-2736 -1465,-1050 -3089,-5387 -2922,-7141 46,-479 112,-1031 248,-1460l377 -917c203,-303 66,-107 250,-254 -31,742 -396,2386 66,3035 6,-782 179,-3959 855,-4424l389 -253c11,-9 32,-37 47,-56 -271,-109 -212,-52 -543,7 275,-1519 2095,-1672 3212,-1981 953,-265 2402,87 3240,479 303,142 626,347 378,697zm4350 -327c-45,-455 -615,-2076 5,-2204 784,-162 81,-126 335,-142 338,428 3,1936 -340,2346zm-1277 -3816l701 803c-316,972 -561,3295 -829,4421 -696,-237 -2089,-1658 -3647,-2304 -1254,-519 -3641,-999 -4931,-113 -546,375 -1013,946 -1501,1391 -510,464 -694,1192 -1015,1882 -782,1688 -1118,2586 -741,4831 566,3372 1790,3930 2233,4949 284,653 173,326 739,765 515,399 1170,864 1768,1242 1478,935 2411,1214 4184,1611 4142,927 4142,4 4962,-121l-683 1569c321,-400 466,-979 764,-1399 102,-143 78,-94 177,-188 -66,983 -96,1915 1035,1810 1343,-124 2493,-1502 4149,-1665 702,-69 1703,352 2367,571 1183,391 4124,374 5534,219 1950,-215 3090,-686 4640,-1238 527,132 -163,-52 293,130 938,376 2228,-738 2827,-710 374,141 669,381 1089,558 780,329 1901,614 2780,650 544,22 1197,-22 1657,83 -191,162 -255,287 -900,276 -358,-6 -558,-108 -804,-189 173,1319 5272,-574 5887,-892 406,-210 1649,-1504 2069,-1904 349,-333 504,-641 923,-1015 1082,-963 1849,-2225 2168,-3826 343,-1728 320,-3534 -276,-5081 -863,-2236 -885,-1342 -1763,-2205 -412,-405 -611,-585 -1137,-896l692 -1098c239,-383 398,-821 484,-1328 292,-1736 -242,-3491 -1488,-4586 -1217,-1070 -1140,-1036 -2992,-1512 -36,-1150 1070,-1235 -77,-2519 -548,-612 -1270,-1085 -1641,-1817l2577 -2250c628,-558 4954,-4106 1828,-3846 -825,68 -731,230 -1296,420 330,-1024 1252,-1609 555,-2699 1099,-2221 2270,-2487 2253,-6348 -16,-3826 -340,-3852 -1714,-6903 -767,-1703 -2114,-3870 -3690,-4900 -854,-558 -1592,-1239 -2569,-1731 -978,-492 -1713,-994 -3025,-1281 5,-1221 262,-2357 287,-3581 13,-602 -80,-746 -116,-1287 -28,-440 33,-866 27,-1299l-376 -3570c-645,-3739 -1141,-3868 -1669,-6196 -74,-323 -226,-589 -356,-925 -134,-352 -221,-729 -337,-1025 -361,58 -180,12 -464,200l-128 87c-345,226 -532,664 -720,1094 -1626,3722 -848,3023 -1835,6226 -400,1298 -389,3354 -590,4769 -232,1635 206,3204 417,4767l-1583 -134c122,-1326 -184,-2156 -176,-3460 7,-1252 158,-2389 126,-3658 -63,-2540 75,-4143 324,-6641 145,-1460 320,-1736 615,-3042 232,-1027 318,-2148 581,-3186 136,-536 1406,-5093 1925,-5534 515,770 940,1744 1522,2562 384,540 992,2321 1282,2773l-295 374c675,658 506,539 528,1506l318 108c298,945 380,2476 824,3204 118,-351 -122,-991 -128,-1502 486,462 504,1412 607,2043 118,718 385,1369 506,2067l889 6882c15,877 33,1545 210,2347 273,1231 -232,4117 68,4634 474,-194 356,-1061 388,-1710 36,-723 162,-1345 72,-2105 -67,-565 -145,-1298 -237,-1914 -105,-701 -70,-1346 -145,-2113l-713 -5947c-156,-670 -219,-1228 -367,-1878l-996 -3427c-368,-1055 -830,-2161 -1248,-3258 -211,-553 -523,-979 -728,-1427 -598,-1308 -695,-1733 -1617,-2894 -149,-189 -344,-398 -453,-645 -249,-562 -32,-425 -30,-914 -523,-58 -498,281 -599,811l-143 73c-251,129 -318,243 -424,525l-939 2932c-156,550 -435,1254 -568,1886 -163,774 -217,1440 -401,2197 -956,3948 -483,3792 -941,6631 -73,450 -107,626 -221,1029 -44,155 -88,314 -141,499 -7,28 -70,252 -73,259 -90,205 -56,120 -158,244 -449,-1424 -303,-3413 -619,-4878 -168,-784 -272,-1568 -413,-2392 -615,-3570 -1480,-6150 -3561,-9008l-499 -780c-8,-14 -26,-44 -41,-65 -871,185 -1009,1291 -1565,1873 -290,304 -330,98 -602,566 -582,1004 -1225,1962 -1691,3032 -808,1858 -2094,4840 -2611,6754 -1017,3766 -2556,7538 -2259,11544 105,1422 242,3121 229,4522 431,-126 376,-153 570,420l-970 362c-393,154 -599,254 -930,462 -583,366 -1045,686 -1553,1131 -718,631 -1606,1142 -2329,1765 -324,279 -283,448 -638,757 -1338,1167 -1382,1682 -1948,3421 -446,1373 -1196,2727 -1337,4152 -149,1497 -143,3649 90,5078 506,3114 1333,5093 3988,6864 1099,733 2360,1329 3677,1821 -468,803 -1025,800 -1749,2355 -359,772 -893,2168 -1035,3032 -204,1245 25,2368 366,3485 175,572 272,1100 477,1570 198,452 509,867 666,1380 8,-18 16,-68 17,-55l53 -242zm1807 -11202c843,-28 1687,233 2502,321 884,95 1860,99 2811,124 -153,1357 553,1388 1359,2025 753,-183 -361,-76 291,-165 477,-64 2120,1105 2476,1296 202,108 325,122 450,197 1095,650 758,2660 69,3872l-306 -83c7,762 -332,1408 -697,1793 -333,-187 -581,-524 -974,-758 -315,-188 -852,-452 -1172,-553 393,555 1787,977 1756,1415 -2,29 -12,55 -15,65 -131,439 20,230 -51,514 -84,338 -298,378 -410,915 407,-298 74,-301 356,-214l-185 376c-11,22 -25,50 -36,72l-1179 2151c-505,990 -1827,949 -3011,743 -859,-149 -4519,-1888 -5216,-2780 -1246,-1597 -2050,-4006 -1721,-6262 295,-2019 1918,-3724 2903,-5064zm7573 11682c137,-160 150,-139 279,-293 196,-234 166,-40 237,-411l-516 704zm-1290 -3957c148,148 360,258 526,344l-526 -344zm-699 -6700c446,125 566,289 897,487l-385 477c-408,-507 -291,-233 -512,-964zm931 -336l826 197c772,-19 3486,51 3849,-42 967,-248 985,-51 1848,12 806,58 1271,-55 1927,-86 -155,276 -1940,2377 -2773,3868 -165,295 -252,437 -395,682 -228,394 -173,476 -475,743 -315,-541 -119,-1314 -331,-1870 -435,-1139 -2918,-2113 -4043,-2614 135,-383 227,-314 -433,-890zm8810 -234l-470 41c153,-173 -220,-219 233,-180 325,28 40,-42 237,139zm11365 -2923c160,365 33,253 338,527 420,-140 252,-234 770,-834l2501 -2440c211,233 93,-3 244,366 350,-778 399,-625 681,-669 356,640 -546,1682 -863,2184 -321,511 -1222,1480 -1312,2064 1208,-162 1510,-2069 3716,-2001 -106,674 -1298,1856 -1833,2341 -528,479 -2827,2744 -3405,2880 -295,70 191,145 -182,11 -584,-293 -1907,-1955 -1911,-1958 -257,-220 -991,-474 -1473,-1073 261,-602 2947,-4054 3529,-4699 407,-451 862,-1184 1483,-1358 -85,1930 -1924,3470 -2283,4659zm755 4262c-52,-112 -34,13 -26,10 2,0 65,74 26,-10zm2946 -6629c-7,10 22,19 22,32 0,5 9,13 9,13 -2,-3 89,-225 -31,-45zm-36519 -7098c-355,-1692 347,-5836 829,-7469 341,-1157 1976,-2728 2916,-3448l1291 -860c912,-517 1837,-1012 2723,-1470 902,-465 2131,-878 3115,-1201 1808,-593 3381,-959 5343,-1130 801,-70 1480,-205 1878,194 22,-14 51,-67 61,-48 4,8 148,-147 474,-189 1313,-171 1453,319 1939,336 412,15 799,-175 1397,-167 486,7 1020,46 1507,77l4078 411 3412 1115c1683,899 982,159 2883,1643 1254,978 703,170 2351,2171 1685,2046 3267,6056 3256,8849 -4,1223 15,1741 -224,2831 -447,2035 -374,604 -710,1541 -251,701 -430,1615 -1314,2475 -336,326 -631,262 -1035,480 -413,222 -449,486 -1011,677 202,-865 831,-1885 97,-2671 -731,34 -1273,505 -1666,1018 -439,574 -905,935 -1345,1550 -486,680 -1594,2781 -2338,3363 -986,770 -976,-342 -2983,-670 -497,-81 -789,-256 -1228,-317 -1211,-170 -2811,1691 -3388,2304 -1369,78 -2660,36 -3921,193 -1164,144 -2714,293 -3844,265 633,209 6689,-323 6999,-278 672,97 198,-64 478,216 -506,173 -1226,-39 -1853,90 -1403,287 -119,58 -1533,169 -1254,99 -2447,138 -3766,147 -301,2 -681,5 -978,-13 -490,-30 -562,-131 -734,-142 -514,-32 -1136,46 -1795,-36 -674,-83 -1052,-107 -1764,-118 -516,-8 -1337,53 -1755,-302l906 -209c-580,-43 -1215,172 -1654,-40 -352,-170 -626,-629 -1051,-906 236,420 436,336 554,858 -1326,-416 -1365,2 -3164,-1035 -3480,-2008 -4324,-3577 -5148,-7681 -335,-1673 23,-2062 66,-2800 106,-1860 300,-3636 997,-5394 200,-505 318,-536 447,-191 88,238 -420,4914 -70,5580 189,359 -55,119 275,232zm6026 10325c-52,-384 51,377 0,0zm-5362 -18826c-66,316 -298,886 -562,1163 -108,112 -73,64 -203,161 254,-594 331,-873 765,-1324zm4722 -4194c180,-318 661,-589 1112,-678 -157,308 -114,284 -462,455 -220,108 -396,170 -650,223zm1967 -2594c-108,-250 -116,-366 -125,-743l109 -652c167,304 160,1093 16,1395zm21259 -49c-980,-83 -2034,-264 -2985,-329 -488,-34 -1094,-6 -1560,-87 -525,-91 -471,-206 -545,-330 -27,-44 -94,-207 -129,-308 -651,-1852 -273,-7321 204,-8968 629,-2171 492,-2539 682,-3301 125,-502 105,-250 232,-517 277,-580 713,-2462 1251,-2675 259,-103 363,-47 430,-21 148,509 12,470 339,956 948,1412 512,1887 972,2577 437,655 828,2939 936,3814l236 4513c91,1561 -116,3044 -63,4676zm-18416 345c-193,-1439 -17,-3725 252,-5129 350,-1833 737,-5400 1126,-7142 640,-2865 70,-1340 1337,-4058l988 -1760c261,164 310,337 477,657 490,933 1772,3280 1790,4235l69 788c3,-14 17,52 31,75 16,-24 25,-61 32,-79l58 -161c8,-24 17,-57 24,-81 70,-224 -56,-44 89,-309 1151,2067 1668,6317 1541,8810l-423 2904c414,-81 174,-18 414,-334l-35 516c-1618,126 -2508,38 -4086,358 -629,127 -1273,164 -1904,252 -784,110 -943,369 -1780,458zm-1678 -10829c278,-273 609,-1968 683,-2332l1273 -4524c345,-1198 1407,-4294 2044,-5278 545,-842 1188,-1768 1634,-2675 907,-1846 1114,-1022 1214,-1600 8,-45 30,-56 50,-81 260,481 835,1006 1579,2431 149,283 147,431 273,695 86,179 253,386 361,614 880,1843 1483,5814 1830,7980 172,1077 188,2467 432,3525 379,1646 489,5569 464,7378 -29,2105 195,978 -266,2629 -86,309 -83,713 -403,795l-511 57c-268,16 -530,26 -799,36 45,-871 226,-1956 215,-2764 -21,-1522 -316,-3632 -411,-5166 -54,-859 -421,-1515 -518,-2257 -208,-1584 -1906,-4421 -2583,-5815l-964 -1774c-601,137 -2075,3083 -2338,3628l-572 2438c-169,766 -478,1602 -590,2294 -162,1002 -326,1575 -558,2469 -265,1020 -216,1659 -206,2784 9,987 -223,1808 -231,2796 -7,943 53,1849 71,2804 -456,285 -1298,531 -1950,576l-181 -2201c-41,-727 -447,-385 -88,-3398 155,-1300 872,-4526 827,-5202l157 -2098c147,-799 174,-503 330,-631l-268 1867zm-126 -32c-231,1211 -88,745 71,925 -92,-807 344,-317 -71,-925z"/>
    <path class="fil5" d="M26537 53213c361,-892 379,-2852 524,-3876 1047,393 -101,277 2429,896 27,1226 -399,3256 -401,3261l-77 177c-981,280 -1727,340 -2710,421l235 -879zm-2625 -3457c28,-17 66,-31 89,-39 23,-9 60,-27 89,-37l182 -58c117,-32 218,-37 357,-75 757,-208 673,-793 1592,-979 538,730 286,954 225,1839 -35,509 -267,3057 -485,3497 -339,683 -1611,328 -2230,280 216,-1047 211,-3198 181,-4428zm-3309 -1205c-81,493 2011,1145 2736,1154 38,943 168,1354 67,2411 -42,447 -123,659 -61,1166 76,631 201,417 -207,884 121,238 256,607 387,853 10,-23 22,-85 26,-70l149 -356c914,-2 4634,602 5676,-385l153 -171c154,-149 35,-54 172,-141 -552,-602 35,32 141,-1662 48,-769 185,-1436 202,-2048 3167,-245 3196,-1620 2268,-1120 -2184,1179 -4867,615 -5955,-1145 -1165,265 -946,1227 -2612,1334 -2206,141 -2423,-1014 -3142,-704z"/>
    <path class="fil5" d="M35666 37872c1361,-273 2354,901 2337,2309 -24,1961 -1871,3635 -3868,2086 -1298,-1007 -737,-3941 1531,-4395zm-56 -479c-1280,347 -1297,80 -2074,964 -2808,3195 1822,7013 4099,4105 2139,-2734 -336,-5527 -2025,-5069z"/>
    <path class="fil5" d="M15224 40719c-122,-967 725,-2576 1974,-2393 832,123 -174,-156 697,-56 1411,160 2915,4067 -180,4529 -1698,253 -2317,-705 -2491,-2080zm1140 -3003c-447,138 -771,427 -881,739 -376,1058 -1947,2928 401,4626 714,517 1319,478 2321,262 960,-206 1111,-561 1498,-1273 1406,-2580 -1508,-4918 -3339,-4354z"/>
    <path class="fil5" d="M23859 43217c594,14 454,61 717,402 464,-344 1557,-211 2397,-219 831,-8 1358,-471 2147,8 -217,500 -2241,2572 -2798,2906 -336,-275 -1305,-1683 -1930,-2265 -256,-238 -500,-399 -533,-832zm-632 -319c-74,978 2283,3266 3089,3815 460,-133 3389,-2735 3420,-3621 -829,-426 -2002,-425 -3147,-250 -1426,218 -2199,-306 -3362,56z"/>
    <path class="fil5" d="M9217 80184c1108,439 2072,1479 1697,3206 -542,2492 -3805,2414 -4377,659 -1090,-3344 1466,-4685 2474,-3558 228,-97 86,-105 206,-307zm-1651 -364c-915,466 -1097,190 -1541,1375 -263,704 -617,1537 -269,2366 150,356 321,580 487,915 532,1072 2270,1429 3232,1132 514,-159 1421,-1063 1551,-1327 666,-1349 378,-3102 -1145,-4095 -502,-328 -1639,-711 -2315,-366z"/>
    <path class="fil5" d="M46525 77861c116,1210 -974,2924 -2054,2582 -276,-754 -76,-1375 299,-1910 176,-250 340,-462 711,-500 207,-22 301,-5 461,72 365,177 -68,-50 191,146l134 105c16,13 47,35 72,52 -94,-476 -267,-700 -860,-679 -219,8 -414,102 -556,199 -682,464 -1165,1729 -525,2799 960,78 1491,-393 1974,-1124 183,-276 173,-463 295,-768 236,-585 282,-1128 -247,-1400 -583,-299 -1229,44 -1717,200l109 -764c-460,-401 -560,-577 -1381,-600 -1821,-53 -3187,1733 -1187,3219 442,-165 951,-151 1602,-907 186,256 95,267 212,548l163 -607c14,-30 52,-119 69,-147 316,-550 1392,-1099 2235,-516zm-4680 996c-202,-175 -29,99 -245,-281 -2,-3 -88,-239 -90,-247 -191,-906 886,-2401 2915,-1502 40,1138 -1189,2502 -2217,2232 -148,-515 -128,-1209 149,-1645 454,-711 1057,-484 1182,-548 -581,-519 -1719,-53 -1694,1991z"/>
    <path class="fil5" d="M40625 82240c1252,37 2291,1536 1430,2819 -1139,1697 -4349,1903 -4589,-119 -340,-2861 2634,-3405 3010,-2404 194,514 -124,537 -349,758 600,-127 654,-456 498,-1054zm-1988 -522c-1433,436 -1829,2602 -1400,3720 506,1322 2293,1644 3709,882 770,-415 1010,-467 1505,-1171 930,-1325 -70,-2722 -1512,-3201 -565,-188 -1682,-418 -2302,-230z"/>
    <path class="fil5" d="M34310 40719c139,1751 2380,2135 2463,0 80,-2060 -2616,-1913 -2463,0z"/>
    <path class="fil5" d="M17321 39342c-1872,991 -553,3085 748,2683 536,-165 984,-1101 801,-1820 -150,-595 -779,-1271 -1549,-863z"/>
    <path class="fil5" d="M6383 74481c658,34 273,121 766,221 -87,-449 -73,-167 -339,-645 578,204 914,366 399,1226 -250,419 -559,691 -1143,532 -234,-671 -26,-959 317,-1334zm-501 1784c1682,228 2505,-2077 1132,-2450 -1070,-291 -2587,934 -1132,2450z"/>
    <path class="fil5" d="M2691 78320c-152,-416 -148,-1357 124,-1724 166,-224 996,-520 1349,-482 752,974 -360,2502 -1473,2206zm863 -2530c-686,159 -1491,563 -1386,1363 104,798 137,1791 1208,1501 1518,-412 1896,-3262 178,-2864z"/>
    <path class="fil5" d="M23418 72327c270,-120 147,15 326,-394l1500 -3129c404,-774 904,-1879 1390,-2591 226,-331 433,-380 396,-828 -735,285 -1645,2423 -2083,3312 -308,624 -1781,3065 -1529,3630z"/>
    <path class="fil5" d="M2263 82623c-274,-465 -670,-852 -342,-1641 347,-834 433,-569 752,-655l352 -201c22,-7 53,-20 76,-25 1122,-210 749,2426 -838,2522zm-208 -2695c-301,644 -801,1214 -427,2167 816,2081 2635,-136 2404,-1567 -144,-891 -1088,-729 -1977,-600z"/>
    <path class="fil5" d="M47111 81985c86,61 413,121 161,857 -71,206 -266,469 -380,609 -1885,2329 -2401,-1512 -329,-1534l243 578c214,-260 38,-118 160,-349 132,-250 -61,-138 145,-161zm477 55c-424,-375 -1474,-811 -1934,-365 -477,463 -672,1166 -600,2082 129,1628 2749,148 2534,-1717z"/>
    <path class="fil5" d="M31224 60373c939,92 3393,2564 3867,2572 25,-407 -29,-329 -313,-556l-1409 -1177c-442,-376 -1551,-1323 -2098,-1334 -348,354 -488,527 -350,1251l303 -756z"/>
    <path class="fil5" d="M9002 44652c237,-359 -15,-297 9,-894 99,-2487 350,-2145 599,-3222 -715,-369 -816,1037 -885,1708 -74,713 -348,2157 277,2408z"/>
    <path class="fil5" d="M31385 79354c144,-264 -10,-214 288,-275 4,0 129,14 218,-7 29,-7 118,-39 146,-52l621 -470c742,-617 3328,-2521 3150,-3162 -251,578 -3605,3416 -4002,3611 93,-395 248,-409 528,-641l362 -391c13,-18 32,-44 46,-61l315 -331c472,-451 749,-604 797,-1124l-2586 2774 117 129z"/>
    <path class="fil5" d="M20943 9943c479,-182 -43,143 464,-1023 185,-424 338,-691 516,-1099l1017 -2019c-131,-110 -84,-65 -275,-112 -165,339 -371,639 -529,928 -207,378 -335,745 -518,1095 -228,437 -964,1696 -675,2230z"/>
    <path class="fil5" d="M12875 63738c69,-136 35,32 56,-229 4,-57 1,-232 1,-299 0,-228 -13,-418 38,-643 36,-160 277,-761 381,-1026 235,-606 370,-876 770,-1298 129,-136 86,-44 151,-161l37 -182c2,-10 -2,-44 -10,-65 -572,-221 -1098,1067 -1264,1473 -252,617 -628,1809 -160,2430z"/>
    <path class="fil5" d="M20083 20664l1049 -1913c224,-361 351,-575 561,-944 194,-341 499,-592 332,-966 -376,212 -407,431 -645,858 -212,382 -410,637 -600,1003 -191,366 -347,585 -539,974 -195,394 -490,729 -158,988z"/>
    <path class="fil5" d="M7487 50907c458,-27 344,-66 494,-462 182,164 99,76 255,310l228 308 487 -397c126,299 253,674 667,488 -255,-400 -489,-842 -777,-1013l-253 281c-406,-414 54,-219 -712,-501l-341 -119 -48 1105z"/>
    <path class="fil5" d="M45727 70479c117,-767 -440,-2048 -1106,-2107 92,662 926,755 737,2120 -224,1619 -711,1793 -782,1996 568,-63 1111,-1742 1151,-2009z"/>
    <path class="fil5" d="M33497 71525c-404,-288 -1456,-1141 -1904,-1211 71,442 366,542 711,781 1744,1209 1196,590 2365,1932 174,-545 -732,-1188 -1172,-1502z"/>
    <path class="fil5" d="M10918 53730c-88,485 2423,2197 3025,1943 -250,-515 -1142,-641 -1614,-958 -270,-181 -467,-385 -705,-590l-510 -431c-228,-59 -69,-23 -196,36z"/>
    <path class="fil5" d="M23817 32077c-20,671 1054,193 1544,125 651,-90 1689,300 1989,109 -508,-788 -2928,-207 -3533,-234z"/>
    <path class="fil5" d="M32239 24476c335,-138 109,-115 345,-725 121,-312 232,-545 371,-809 180,-344 697,-1106 468,-1546 -258,95 -643,1096 -796,1410 -204,419 -664,1172 -388,1670z"/>
    <path class="fil5" d="M43464 42333c366,239 1110,524 1553,215 -225,-290 -268,-159 -1206,-290 28,-503 115,-621 399,-864 675,-578 495,-50 590,-568 -394,-211 -1416,765 -1336,1507z"/>
    <path class="fil5" d="M24752 71132c160,-290 355,-653 551,-984 262,-443 1666,-2398 1425,-2810 -378,141 -1816,3203 -1976,3794z"/>
    <path class="fil5" d="M24777 77443c-906,-850 -971,-1408 -1452,-1544 56,471 475,958 749,1284 605,718 578,887 1183,884 -104,-433 -178,-340 -480,-624z"/>
    <path class="fil5" d="M31632 67475c-474,-351 -1528,-1689 -2062,-1479 101,162 -125,66 262,365 836,645 1715,1624 2163,1361 -197,-178 -154,-93 -363,-247z"/>
    <path class="fil5" d="M32708 26031c215,-643 475,-1307 798,-1794 372,-559 962,-1335 777,-1688 -354,314 -828,1223 -1018,1638 -191,417 -751,1482 -557,1844z"/>
    <path class="fil5" d="M38264 43921c399,-175 73,-152 651,-929 226,-305 651,-521 425,-945 -484,19 -16,-224 -775,801 -189,254 -535,735 -301,1073z"/>
    <path class="fil5" d="M7583 83951c-115,-633 -214,-1602 174,-2203 177,-274 194,-31 206,-409 -571,-97 -680,711 -734,1137 -76,608 -102,1272 354,1475z"/>
    <path class="fil5" d="M26542 73188c135,424 -209,62 393,589 760,663 1048,1326 1379,937 -360,-405 -1224,-1443 -1772,-1526z"/>
    <path class="fil5" d="M38694 36415c383,-226 232,-402 459,-826 160,-297 379,-528 460,-870 -151,-135 -118,-138 -357,-196l-599 1318c-227,643 -13,505 37,574z"/>
    <path class="fil5" d="M16481 78006c361,-7 382,-292 783,-1155 193,-416 569,-992 473,-1398 -336,168 -274,411 -681,1275 -199,422 -365,943 -575,1278z"/>
    <path class="fil5" d="M13937 63829c-155,-614 -93,-896 105,-1481 144,-425 466,-962 484,-1335 -535,185 -1287,2421 -589,2816z"/>
    <path class="fil5" d="M20458 20982c233,-97 1449,-2113 1522,-2537 -509,197 -1486,2257 -1522,2537z"/>
    <path class="fil5" d="M39340 63520c214,-538 -980,-1690 -1501,-1508 188,386 -174,111 328,421 855,527 832,745 1173,1087z"/>
    <path class="fil5" d="M20354 62502c-9,-485 -480,-502 -882,-726 -367,-204 -729,-530 -1104,-592 33,406 119,339 914,761 350,186 791,478 1072,557z"/>
    <path class="fil5" d="M13951 75112l701 -2696c15,-470 2,-192 -164,-284 0,0 -731,2573 -537,2980z"/>
    <path class="fil5" d="M44001 48927c275,-303 1161,-1630 1131,-2157 -276,148 -566,797 -717,1062 -239,415 -484,777 -414,1095z"/>
    <path class="fil5" d="M14381 68367c117,-288 122,-773 180,-1089 85,-460 255,-643 -140,-793 -33,53 -438,1542 -40,1882z"/>
    <path class="fil5" d="M39662 36512c251,-93 95,70 206,-200l358 -1151 -269 -205c-171,270 -475,1209 -295,1556z"/>
    <path class="fil5" d="M40324 37704c305,-438 652,-1317 616,-2041 -308,192 -287,402 -410,852 -102,369 -199,740 -206,1189z"/>
    <path class="fil5" d="M9545 44828c284,-157 79,307 269,-922 66,-427 66,-687 -44,-1028 -372,350 -232,1454 -225,1950z"/>
    <path class="fil5" d="M15450 77505l166 -480c41,-179 78,-340 134,-507 90,-268 262,-672 310,-912 -709,25 -617,1363 -610,1899z"/>
    <path class="fil5" d="M8138 84707c18,-637 197,-1668 3,-2131 -280,486 -294,1662 -3,2131z"/>
    <path class="fil5" d="M16111 77614c406,-144 306,-265 474,-688 150,-378 246,-526 265,-1013 -423,258 -576,1111 -739,1701z"/>
    <path class="fil5" d="M21002 21607c308,-598 968,-1160 1134,-2005l-369 422c-257,367 -828,1152 -765,1583z"/>
    <path class="fil5" d="M37995 84289c132,334 206,475 400,518 396,86 243,-70 268,-88 -937,-590 -19,-777 -13,-1342 -482,48 -509,496 -655,912z"/>
    <path class="fil5" d="M11369 79519c184,-239 280,-1388 272,-1462 -45,-428 -95,-247 -256,-303 -38,670 -192,1521 -16,1765z"/>
    <path class="fil5" d="M27183 88026l434 -1481c127,-415 47,-337 -4,-432 -279,244 -281,501 -381,906 -99,401 -276,698 -49,1007z"/>
    <path class="fil5" d="M39292 85229c-239,-615 -123,-1051 -275,-1541 -210,59 -359,-75 -179,797 158,768 260,696 454,744z"/>
    <path class="fil5" d="M24608 52413c214,-148 231,-376 290,-1063 32,-363 -22,-322 -82,-429 -358,231 -368,1192 -208,1492z"/>
    <path class="fil5" d="M21615 9731c238,-322 1054,-2108 1129,-2563 -420,397 -923,1839 -1129,2563z"/>
    <path class="fil5" d="M43688 70249c543,1244 323,226 394,2110 287,-570 306,-2042 -394,-2110z"/>
    <path class="fil5" d="M17765 71267c400,498 1251,890 2100,963 -586,-395 -647,41 -1994,-1102l-106 139z"/>
    <path class="fil5" d="M10880 78958c130,-202 395,-1185 166,-1584 -233,331 -386,1256 -166,1584z"/>
    <path class="fil5" d="M44686 86584c95,-330 599,-1397 248,-1710 -175,390 -343,1257 -248,1710z"/>
    <path class="fil5" d="M43750 86504c285,-181 228,-362 348,-786 84,-295 218,-492 255,-852 -182,330 -845,1187 -603,1638z"/>
    <path class="fil5" d="M25366 61677c278,-268 539,-889 607,-1362 -416,88 -598,951 -607,1362z"/>
    <path class="fil5" d="M15118 68650c94,-370 252,-1184 124,-1442 -328,261 -335,1056 -124,1442z"/>
    <path class="fil5" d="M28376 88019c345,-407 840,-1238 802,-1967 -208,731 -710,1388 -802,1967z"/>
    <path class="fil5" d="M24709 61460c41,-53 52,-43 115,-180l210 -542c148,-333 219,-362 105,-656 -214,240 -567,966 -430,1378z"/>
    <path class="fil5" d="M24128 61192c12,-46 129,-371 195,-504 378,-758 175,-430 63,-624 -131,183 -240,364 -316,556 -153,395 -160,352 58,572z"/>
    <path class="fil5" d="M25114 52043c68,-59 194,13 283,-632 55,-399 92,-425 -205,-527l-78 1159z"/>
    <path class="fil5" d="M27721 52330l182 -572c80,-337 112,-234 33,-468 -474,187 -364,807 -215,1040z"/>
    <path class="fil5" d="M38172 44893c333,-194 867,-884 1129,-1280l-50 -70c-27,-8 -989,1132 -1079,1350z"/>
    <path class="fil5" d="M45419 43876l573 -97 -570 -112 -123 -540c-364,260 -109,543 120,749z"/>
    <path class="fil5" d="M28151 52554c167,-253 341,-673 121,-1032 -154,252 -229,785 -121,1032z"/>
    <path class="fil5" d="M12229 79974c75,-109 64,15 100,-212l-35 -915c-198,274 -262,793 -65,1127z"/>
    <path class="fil5" d="M15545 55890c-148,-225 -388,-280 -660,-255 3,445 324,364 660,255z"/>
    <path class="fil5" d="M20021 33267c461,31 308,55 538,-129l-249 -227c-145,144 -212,160 -289,356z"/>
    <path class="fil5" d="M31738 39906c-109,-273 -53,-221 -332,-326 -153,329 30,565 332,326z"/>
    <path class="fil5" d="M21845 32908c524,-96 276,-23 352,-258 -172,-216 -22,-113 -285,-158l-67 416z"/>
    <path class="fil5" d="M20136 38733c-19,-313 -5,-257 -268,-356 -107,279 -115,357 268,356z"/>
    <path class="fil5" d="M3761 83966c292,222 166,157 381,0 -287,-526 -342,-34 -381,0z"/>
    <path class="fil5" d="M5001 86173c-14,-358 6,-285 -312,-368 79,327 13,275 312,368z"/>
    <path class="fil5" d="M20399 39943c120,-72 106,67 156,-129 49,-189 13,-62 -42,-176 -67,30 -413,-104 -114,305z"/>
    <path class="fil5" d="M21374 63258c195,-344 99,-194 -108,-318 -198,327 -97,214 108,318z"/>
    <path class="fil5" d="M4609 84934c552,455 321,15 339,0 -154,-93 -102,-139 -339,0z"/>
    <path class="fil5" d="M37686 78773c-177,-126 6,6 61,50 338,-205 244,-125 710,-175 -112,-6 -317,-29 -418,-21 -542,46 -239,22 -353,146z"/>
    <path class="fil5" d="M34845 55053c-66,-4 -227,-97 -409,-177 111,205 135,234 409,177z"/>
    <path class="fil5" d="M46817 57123c265,-162 205,132 224,-321l-224 321z"/>
    <path class="fil5" d="M22257 63922c21,51 50,60 58,86 48,142 238,-47 243,-52l-301 -34z"/>
    <path class="fil5" d="M17105 56240l-173 -216c-6,291 -110,242 173,216z"/>
    <path class="fil5" d="M32718 53c36,75 199,234 75,33 -2,-4 -142,-168 -75,-33z"/>
    <path class="fil5" d="M40171 77034c218,153 268,94 532,233l-532 -233z"/>
    <path class="fil0 str0" d="M20021 60560l385 -477c-331,-198 -451,-362 -897,-487 221,731 104,457 512,964z"/>
   </g>
  </g>
 </g>
</svg>
