<?xml version="1.0" encoding="UTF-8"?>
<svg viewBox="0 0 800 1200" xmlns="http://www.w3.org/2000/svg">
 <path d="m397.62 367.05c-42.992 0.13959-83.239 15.223-106.45 49.715-21.52 31.983-28.516 58.03-28.44 80.219-7.7572 17.917-24.351 50.841-51.861 79.724-40.172 42.176-108.15 80.007-114.33 132.36-6.1803 52.356 4.6365 84.358 4.6365 84.358s75.663-79.999 128.2-155.62c25.571-36.811 36.163-74.631 39.912-103.61 14.979 44.898 45.591 73.629-19.789 116.71-108.16 71.262-49.708 262.7 105.06 237.06 193.14-31.995 79.412-196.22 160.7-273.41 47.254-44.873 44.434-86.033 40.012-122.86 18.534 27.441 36.353 67.896 44.974 128.66 9.2604 65.272 86.42 168.63 86.42 168.63s4.6365-32.642 4.6365-114.23c0-71.272-115.19-186.7-140.81-215.13-24.062-85.722-73.988-84.907-152.86-92.561z" fill="#d38d5f" stroke="#a05a2c" stroke-width=".761"/>
 <path d="m248.91 863.52s20.044-12.657-14.855-65.822c-28.903-44.03 154.88-40.776 120.19 8.0599-28.652 40.33-29.192 56.447 4.0512 79.255 7.1181 4.8837-33.761 9.4032-60.77 2.6866-30.669-7.6267-48.616-24.18-48.616-24.18z" fill="#502d16"/>
 <g fill="#501616">
  <path d="m310.04 568.57c4.3267-10.889 12.13-12.51 17.43-3.6204 5.2998 8.8895 6.0888 24.923 1.7621 35.812s-12.131 12.509-17.43 3.6201c-4.1134-6.8994-5.6289-18.418-3.7681-28.636"/>
  <path d="m407.37 569.26c4.3267-10.675 12.13-12.264 17.43-3.549 5.2998 8.7148 6.0886 24.433 1.762 35.108-4.3267 10.675-12.13 12.264-17.43 3.5491-4.1134-6.7638-5.629-18.056-3.7681-28.073"/>
 </g>
 <g fill="#782121">
  <path d="m282.96 475.7l-110.92-99.946s-29.579-13.629-75.795-7.5717c-46.217 6.0575-96.13-28.772-96.13-28.772s-3.6973-9.0859 11.092-16.658c14.789-7.5717 14.789-6.0573 14.789-6.0573s3.6973 19.686 44.368 25.744c40.671 6.0573 46.217-7.5717 46.217-7.5717s-16.638-33.315-57.309-56.03-49.914-66.63-49.914-96.917 22.184-63.602 22.184-63.602 7.3947-12.115 22.184-1.5144c14.789 10.6 11.092 12.115 11.092 12.115s-22.184 7.5717-22.184 46.944c0 39.373 11.092 69.659 25.881 80.259s53.611 16.658 53.611 16.658-9.2433-77.231 9.2433-109.03c18.487-31.801 22.184-63.602 7.3947-78.745s-48.065-18.172-48.065-18.172-5.546-1.5143 1.8486-16.658c7.3946-15.143 18.487-6.0573 18.487-6.0573s20.335 1.5144 40.671 18.172c20.335 16.658 31.427 39.373 27.73 63.602-3.6973 24.229-18.487 49.973-18.487 78.745s55.46 3.0286 94.282-37.858 24.033-69.659 24.033-69.659 24.033-15.143 35.125 1.5144c11.092 16.658-7.3947 77.231-49.914 107.52-42.519 30.287-68.4 27.258-94.282 46.944-25.881 19.686-12.941 63.602 5.546 84.803s62.855 43.916 62.855 43.916 3.6972-66.631 16.638-84.802c12.941-18.172 31.427-24.229 31.427-24.229s35.125 1.5143 33.276 13.629c-1.8487 12.115-1.8487 13.629-1.8487 13.629s-22.184-4.5429-33.276 25.744-14.789 53.002-14.789 53.002l1.8486 22.715 51.763 48.458s9.2433 34.83-40.671 25.744z"/>
  <path d="m533.52 480.7l104.24-100.17s27.796-13.66 71.227-7.589c43.431 6.0713 90.337-28.838 90.337-28.838s3.4744-9.1068-10.424-16.696c-13.898-7.589-13.898-6.0712-13.898-6.0712s-3.4744 19.731-41.694 25.803c-38.22 6.0713-43.431-7.589-43.431-7.589s15.635-33.392 53.855-56.159 46.906-66.783 46.906-97.139-20.847-63.748-20.847-63.748-6.949-12.142-20.847-1.5178c-13.898 10.625-10.424 12.142-10.424 12.142s20.847 7.589 20.847 47.052-10.424 69.819-24.321 80.443c-13.898 10.625-50.38 16.696-50.38 16.696s8.6863-77.408-8.6863-109.28c-17.372-31.874-20.847-63.748-6.9489-78.926s45.168-18.214 45.168-18.214 5.2117-1.5178-1.7372-16.696c-6.949-15.178-17.372-6.0712-17.372-6.0712s-19.11 1.5178-38.219 18.214c-19.11 16.696-29.533 39.463-26.059 63.748 3.4745 24.285 17.372 50.087 17.372 78.926 0 28.838-52.118 3.0356-88.6-37.945s-22.584-69.819-22.584-69.819-22.584-15.178-33.008 1.5178 6.9489 77.408 46.906 107.76c39.957 30.356 64.278 27.32 88.6 47.052 24.322 19.731 12.161 63.748-5.2117 84.997-17.372 21.249-59.066 44.016-59.066 44.016s-3.4744-66.783-15.635-84.997-29.533-24.285-29.533-24.285-33.008 1.5178-31.27 13.66c1.7372 12.142 1.7372 13.66 1.7372 13.66s20.847-4.5534 31.27 25.803c10.424 30.356 13.898 53.123 13.898 53.123l-1.7373 22.767-48.643 48.57s-8.6863 34.909 38.219 25.803z"/>
 </g>
 <path d="m303.68 396.36c6.6284-8.9983 30.932-44.991 33.142-87.732 2.2095-42.741-2.3664-89.323 2.0525-125.32 4.4188-35.993 11.204-74.894 64.231-101.89 53.026-26.995 90.587-20.246 130.36-8.9982 39.77 11.248 59.655 71.986 59.655 116.98 0 44.991 28.723 85.483 11.047 110.23-17.675 24.745-33.142-112.48-75.121-130.47-41.979-17.996-64.074 42.741-64.074 98.98s50.817 125.98 50.817 125.98-13.257 40.492-81.749 58.488c-68.493 17.996-106.05-11.248-130.36-56.239z" fill="#f00"/>
 <g fill="#fff" stroke="#ccc">
  <path d="m308.78 428.36s29.418 30.835 84.33 35.975c54.912 5.1392 119.63-37.688 119.63-37.688s11.767-34.262-1.9612-47.966c-13.728-13.705-27.456 35.975-109.82 35.975-82.369 0-66.68-42.827-86.291-39.401-19.612 3.4262-19.612 29.122-5.8835 53.106z"/>
  <path d="m580.84 269.92c12.054-13.64 33.794-15.67 48.558-4.5348 14.765 11.136 16.962 31.22 4.9088 44.86-12.054 13.64-33.794 15.67-48.559 4.5348-11.459-8.6426-15.682-23.071-10.497-35.871"/>
 </g>
</svg>
